<mxfile host="app.diagrams.net" modified="2024-01-01T19:31:30.027Z" agent="Mozilla/5.0 (Windows NT 10.0; Win64; x64) AppleWebKit/537.36 (KHTML, like Gecko) Chrome/120.0.0.0 Safari/537.36" etag="78B55y4udEjdvcKdiqNw" version="22.1.16" type="github">
  <diagram name="Page-1" id="9f46799a-70d6-7492-0946-bef42562c5a5">
    <mxGraphModel dx="1434" dy="761" grid="1" gridSize="10" guides="1" tooltips="1" connect="1" arrows="1" fold="1" page="1" pageScale="1" pageWidth="1100" pageHeight="850" background="none" math="0" shadow="0">
      <root>
        <mxCell id="0" />
        <mxCell id="1" parent="0" />
        <mxCell id="78961159f06e98e8-17" value="order" style="swimlane;html=1;fontStyle=0;align=center;verticalAlign=middle;childLayout=stackLayout;horizontal=1;startSize=26;horizontalStack=0;resizeParent=1;resizeLast=0;collapsible=1;marginBottom=0;swimlaneFillColor=none;rounded=1;shadow=0;comic=0;labelBackgroundColor=none;strokeWidth=1;fillColor=#e1d5e7;fontFamily=Helvetica;fontSize=12;strokeColor=#9673a6;glass=0;fillStyle=solid;gradientColor=none;" parent="1" vertex="1">
          <mxGeometry x="130" y="112" width="160" height="122" as="geometry" />
        </mxCell>
        <mxCell id="78961159f06e98e8-21" value="order_id" style="text;html=1;strokeColor=none;fillColor=none;align=left;verticalAlign=top;spacingLeft=4;spacingRight=4;whiteSpace=wrap;overflow=hidden;rotatable=0;points=[[0,0.5],[1,0.5]];portConstraint=eastwest;" parent="78961159f06e98e8-17" vertex="1">
          <mxGeometry y="26" width="160" height="26" as="geometry" />
        </mxCell>
        <mxCell id="78961159f06e98e8-23" value="order_cost" style="text;html=1;strokeColor=none;fillColor=none;align=left;verticalAlign=top;spacingLeft=4;spacingRight=4;whiteSpace=wrap;overflow=hidden;rotatable=0;points=[[0,0.5],[1,0.5]];portConstraint=eastwest;" parent="78961159f06e98e8-17" vertex="1">
          <mxGeometry y="52" width="160" height="26" as="geometry" />
        </mxCell>
        <mxCell id="78961159f06e98e8-25" value="order_date" style="text;html=1;strokeColor=none;fillColor=none;align=left;verticalAlign=top;spacingLeft=4;spacingRight=4;whiteSpace=wrap;overflow=hidden;rotatable=0;points=[[0,0.5],[1,0.5]];portConstraint=eastwest;" parent="78961159f06e98e8-17" vertex="1">
          <mxGeometry y="78" width="160" height="22" as="geometry" />
        </mxCell>
        <mxCell id="YpyxLgt282qVsd08SEJV-46" value="sender" style="text;html=1;strokeColor=none;fillColor=none;align=left;verticalAlign=top;spacingLeft=4;spacingRight=4;whiteSpace=wrap;overflow=hidden;rotatable=0;points=[[0,0.5],[1,0.5]];portConstraint=eastwest;" vertex="1" parent="78961159f06e98e8-17">
          <mxGeometry y="100" width="160" height="22" as="geometry" />
        </mxCell>
        <mxCell id="YpyxLgt282qVsd08SEJV-1" value="&lt;b&gt;order_item&lt;/b&gt;" style="swimlane;fontStyle=0;childLayout=stackLayout;horizontal=1;startSize=26;fillColor=#e1d5e7;horizontalStack=0;resizeParent=1;resizeParentMax=0;resizeLast=0;collapsible=1;marginBottom=0;whiteSpace=wrap;html=1;strokeColor=#9673a6;rounded=1;glass=0;swimlaneFillColor=none;fillStyle=solid;gradientColor=none;strokeWidth=1;" vertex="1" parent="1">
          <mxGeometry x="380" y="86" width="160" height="156" as="geometry">
            <mxRectangle x="280" y="83" width="80" height="30" as="alternateBounds" />
          </mxGeometry>
        </mxCell>
        <mxCell id="YpyxLgt282qVsd08SEJV-2" value="order_id" style="text;strokeColor=none;fillColor=none;align=left;verticalAlign=top;spacingLeft=4;spacingRight=4;overflow=hidden;rotatable=0;points=[[0,0.5],[1,0.5]];portConstraint=eastwest;whiteSpace=wrap;html=1;" vertex="1" parent="YpyxLgt282qVsd08SEJV-1">
          <mxGeometry y="26" width="160" height="26" as="geometry" />
        </mxCell>
        <mxCell id="YpyxLgt282qVsd08SEJV-3" value="product_id" style="text;strokeColor=none;fillColor=none;align=left;verticalAlign=top;spacingLeft=4;spacingRight=4;overflow=hidden;rotatable=0;points=[[0,0.5],[1,0.5]];portConstraint=eastwest;whiteSpace=wrap;html=1;" vertex="1" parent="YpyxLgt282qVsd08SEJV-1">
          <mxGeometry y="52" width="160" height="26" as="geometry" />
        </mxCell>
        <mxCell id="YpyxLgt282qVsd08SEJV-4" value="quantity" style="text;strokeColor=none;fillColor=none;align=left;verticalAlign=top;spacingLeft=4;spacingRight=4;overflow=hidden;rotatable=0;points=[[0,0.5],[1,0.5]];portConstraint=eastwest;whiteSpace=wrap;html=1;" vertex="1" parent="YpyxLgt282qVsd08SEJV-1">
          <mxGeometry y="78" width="160" height="26" as="geometry" />
        </mxCell>
        <mxCell id="YpyxLgt282qVsd08SEJV-12" value="total_price" style="text;strokeColor=none;fillColor=none;align=left;verticalAlign=top;spacingLeft=4;spacingRight=4;overflow=hidden;rotatable=0;points=[[0,0.5],[1,0.5]];portConstraint=eastwest;whiteSpace=wrap;html=1;" vertex="1" parent="YpyxLgt282qVsd08SEJV-1">
          <mxGeometry y="104" width="160" height="26" as="geometry" />
        </mxCell>
        <mxCell id="YpyxLgt282qVsd08SEJV-15" value="recipient" style="text;strokeColor=none;fillColor=none;align=left;verticalAlign=top;spacingLeft=4;spacingRight=4;overflow=hidden;rotatable=0;points=[[0,0.5],[1,0.5]];portConstraint=eastwest;whiteSpace=wrap;html=1;" vertex="1" parent="YpyxLgt282qVsd08SEJV-1">
          <mxGeometry y="130" width="160" height="26" as="geometry" />
        </mxCell>
        <mxCell id="YpyxLgt282qVsd08SEJV-8" value="&lt;b&gt;product&lt;/b&gt;" style="swimlane;fontStyle=0;childLayout=stackLayout;horizontal=1;startSize=26;fillColor=#e1d5e7;horizontalStack=0;resizeParent=1;resizeParentMax=0;resizeLast=0;collapsible=1;marginBottom=0;whiteSpace=wrap;html=1;strokeColor=#9673a6;rounded=1;glass=0;swimlaneFillColor=none;fillStyle=solid;gradientColor=none;strokeWidth=1;" vertex="1" parent="1">
          <mxGeometry x="610" y="112" width="160" height="78" as="geometry">
            <mxRectangle x="280" y="83" width="80" height="30" as="alternateBounds" />
          </mxGeometry>
        </mxCell>
        <mxCell id="YpyxLgt282qVsd08SEJV-9" value="product_id" style="text;strokeColor=none;fillColor=none;align=left;verticalAlign=top;spacingLeft=4;spacingRight=4;overflow=hidden;rotatable=0;points=[[0,0.5],[1,0.5]];portConstraint=eastwest;whiteSpace=wrap;html=1;" vertex="1" parent="YpyxLgt282qVsd08SEJV-8">
          <mxGeometry y="26" width="160" height="26" as="geometry" />
        </mxCell>
        <mxCell id="YpyxLgt282qVsd08SEJV-10" value="price" style="text;strokeColor=none;fillColor=none;align=left;verticalAlign=top;spacingLeft=4;spacingRight=4;overflow=hidden;rotatable=0;points=[[0,0.5],[1,0.5]];portConstraint=eastwest;whiteSpace=wrap;html=1;" vertex="1" parent="YpyxLgt282qVsd08SEJV-8">
          <mxGeometry y="52" width="160" height="26" as="geometry" />
        </mxCell>
        <mxCell id="YpyxLgt282qVsd08SEJV-13" style="edgeStyle=orthogonalEdgeStyle;rounded=0;orthogonalLoop=1;jettySize=auto;html=1;entryX=0;entryY=0.5;entryDx=0;entryDy=0;" edge="1" parent="1" source="YpyxLgt282qVsd08SEJV-3" target="YpyxLgt282qVsd08SEJV-9">
          <mxGeometry relative="1" as="geometry" />
        </mxCell>
        <mxCell id="YpyxLgt282qVsd08SEJV-16" style="edgeStyle=orthogonalEdgeStyle;rounded=0;orthogonalLoop=1;jettySize=auto;html=1;fontFamily=Helvetica;fontSize=12;fontColor=default;startSize=26;" edge="1" parent="1" source="78961159f06e98e8-21" target="YpyxLgt282qVsd08SEJV-2">
          <mxGeometry relative="1" as="geometry" />
        </mxCell>
        <mxCell id="YpyxLgt282qVsd08SEJV-18" value="Products" style="shape=table;startSize=30;container=1;collapsible=0;childLayout=tableLayout;fixedRows=1;rowLines=0;fontStyle=0;strokeColor=#82b366;fontSize=16;rounded=1;glass=0;fillStyle=solid;strokeWidth=1;align=center;verticalAlign=middle;fontFamily=Helvetica;fillColor=#d5e8d4;html=1;" vertex="1" parent="1">
          <mxGeometry x="130" y="340" width="430" height="150" as="geometry" />
        </mxCell>
        <mxCell id="YpyxLgt282qVsd08SEJV-22" value="" style="shape=tableRow;horizontal=0;startSize=0;swimlaneHead=0;swimlaneBody=0;top=0;left=0;bottom=0;right=0;collapsible=0;dropTarget=0;fillColor=none;points=[[0,0.5],[1,0.5]];portConstraint=eastwest;strokeColor=inherit;fontSize=16;rounded=1;glass=0;fillStyle=solid;strokeWidth=1;align=center;verticalAlign=middle;fontFamily=Helvetica;fontColor=default;html=1;" vertex="1" parent="YpyxLgt282qVsd08SEJV-18">
          <mxGeometry y="30" width="430" height="30" as="geometry" />
        </mxCell>
        <mxCell id="YpyxLgt282qVsd08SEJV-23" value="Rose" style="shape=partialRectangle;html=1;whiteSpace=wrap;connectable=0;fillColor=none;top=0;left=0;bottom=0;right=0;overflow=hidden;strokeColor=inherit;fontSize=16;rounded=1;glass=0;fillStyle=solid;strokeWidth=1;align=center;verticalAlign=middle;fontFamily=Helvetica;fontColor=default;startSize=26;" vertex="1" parent="YpyxLgt282qVsd08SEJV-22">
          <mxGeometry width="170" height="30" as="geometry">
            <mxRectangle width="170" height="30" as="alternateBounds" />
          </mxGeometry>
        </mxCell>
        <mxCell id="YpyxLgt282qVsd08SEJV-24" value="$3.00" style="shape=partialRectangle;html=1;whiteSpace=wrap;connectable=0;fillColor=none;top=0;left=0;bottom=0;right=0;align=left;spacingLeft=6;overflow=hidden;strokeColor=inherit;fontSize=16;rounded=1;glass=0;fillStyle=solid;strokeWidth=1;verticalAlign=middle;fontFamily=Helvetica;fontColor=default;startSize=26;" vertex="1" parent="YpyxLgt282qVsd08SEJV-22">
          <mxGeometry x="170" width="90" height="30" as="geometry">
            <mxRectangle width="90" height="30" as="alternateBounds" />
          </mxGeometry>
        </mxCell>
        <mxCell id="YpyxLgt282qVsd08SEJV-35" value="Options: Red, Pink" style="shape=partialRectangle;html=1;whiteSpace=wrap;connectable=0;fillColor=none;top=0;left=0;bottom=0;right=0;align=left;spacingLeft=6;overflow=hidden;strokeColor=inherit;fontSize=16;rounded=1;glass=0;fillStyle=solid;strokeWidth=1;verticalAlign=middle;fontFamily=Helvetica;fontColor=default;startSize=26;" vertex="1" parent="YpyxLgt282qVsd08SEJV-22">
          <mxGeometry x="260" width="170" height="30" as="geometry">
            <mxRectangle width="170" height="30" as="alternateBounds" />
          </mxGeometry>
        </mxCell>
        <mxCell id="YpyxLgt282qVsd08SEJV-25" value="" style="shape=tableRow;horizontal=0;startSize=0;swimlaneHead=0;swimlaneBody=0;top=0;left=0;bottom=0;right=0;collapsible=0;dropTarget=0;fillColor=none;points=[[0,0.5],[1,0.5]];portConstraint=eastwest;strokeColor=inherit;fontSize=16;rounded=1;glass=0;fillStyle=solid;strokeWidth=1;align=center;verticalAlign=middle;fontFamily=Helvetica;fontColor=default;html=1;" vertex="1" parent="YpyxLgt282qVsd08SEJV-18">
          <mxGeometry y="60" width="430" height="30" as="geometry" />
        </mxCell>
        <mxCell id="YpyxLgt282qVsd08SEJV-26" value="T-Shirt" style="shape=partialRectangle;html=1;whiteSpace=wrap;connectable=0;fillColor=none;top=0;left=0;bottom=0;right=0;overflow=hidden;strokeColor=inherit;fontSize=16;rounded=1;glass=0;fillStyle=solid;strokeWidth=1;align=center;verticalAlign=middle;fontFamily=Helvetica;fontColor=default;startSize=26;" vertex="1" parent="YpyxLgt282qVsd08SEJV-25">
          <mxGeometry width="170" height="30" as="geometry">
            <mxRectangle width="170" height="30" as="alternateBounds" />
          </mxGeometry>
        </mxCell>
        <mxCell id="YpyxLgt282qVsd08SEJV-27" value="$25.00" style="shape=partialRectangle;html=1;whiteSpace=wrap;connectable=0;fillColor=none;top=0;left=0;bottom=0;right=0;align=left;spacingLeft=6;overflow=hidden;strokeColor=inherit;fontSize=16;rounded=1;glass=0;fillStyle=solid;strokeWidth=1;verticalAlign=middle;fontFamily=Helvetica;fontColor=default;startSize=26;" vertex="1" parent="YpyxLgt282qVsd08SEJV-25">
          <mxGeometry x="170" width="90" height="30" as="geometry">
            <mxRectangle width="90" height="30" as="alternateBounds" />
          </mxGeometry>
        </mxCell>
        <mxCell id="YpyxLgt282qVsd08SEJV-36" value="Options: S, M, L, XL" style="shape=partialRectangle;html=1;whiteSpace=wrap;connectable=0;fillColor=none;top=0;left=0;bottom=0;right=0;align=left;spacingLeft=6;overflow=hidden;strokeColor=inherit;fontSize=16;rounded=1;glass=0;fillStyle=solid;strokeWidth=1;verticalAlign=middle;fontFamily=Helvetica;fontColor=default;startSize=26;" vertex="1" parent="YpyxLgt282qVsd08SEJV-25">
          <mxGeometry x="260" width="170" height="30" as="geometry">
            <mxRectangle width="170" height="30" as="alternateBounds" />
          </mxGeometry>
        </mxCell>
        <mxCell id="YpyxLgt282qVsd08SEJV-28" style="shape=tableRow;horizontal=0;startSize=0;swimlaneHead=0;swimlaneBody=0;top=0;left=0;bottom=0;right=0;collapsible=0;dropTarget=0;fillColor=none;points=[[0,0.5],[1,0.5]];portConstraint=eastwest;strokeColor=inherit;fontSize=16;rounded=1;glass=0;fillStyle=solid;strokeWidth=1;align=center;verticalAlign=middle;fontFamily=Helvetica;fontColor=default;html=1;" vertex="1" parent="YpyxLgt282qVsd08SEJV-18">
          <mxGeometry y="90" width="430" height="30" as="geometry" />
        </mxCell>
        <mxCell id="YpyxLgt282qVsd08SEJV-29" value="Sticker" style="shape=partialRectangle;html=1;whiteSpace=wrap;connectable=0;fillColor=none;top=0;left=0;bottom=0;right=0;overflow=hidden;strokeColor=inherit;fontSize=16;rounded=1;glass=0;fillStyle=solid;strokeWidth=1;align=center;verticalAlign=middle;fontFamily=Helvetica;fontColor=default;startSize=26;" vertex="1" parent="YpyxLgt282qVsd08SEJV-28">
          <mxGeometry width="170" height="30" as="geometry">
            <mxRectangle width="170" height="30" as="alternateBounds" />
          </mxGeometry>
        </mxCell>
        <mxCell id="YpyxLgt282qVsd08SEJV-30" value="$1.00" style="shape=partialRectangle;html=1;whiteSpace=wrap;connectable=0;fillColor=none;top=0;left=0;bottom=0;right=0;align=left;spacingLeft=6;overflow=hidden;strokeColor=inherit;fontSize=16;rounded=1;glass=0;fillStyle=solid;strokeWidth=1;verticalAlign=middle;fontFamily=Helvetica;fontColor=default;startSize=26;" vertex="1" parent="YpyxLgt282qVsd08SEJV-28">
          <mxGeometry x="170" width="90" height="30" as="geometry">
            <mxRectangle width="90" height="30" as="alternateBounds" />
          </mxGeometry>
        </mxCell>
        <mxCell id="YpyxLgt282qVsd08SEJV-37" value="Options: A, B, C, D" style="shape=partialRectangle;html=1;whiteSpace=wrap;connectable=0;fillColor=none;top=0;left=0;bottom=0;right=0;align=left;spacingLeft=6;overflow=hidden;strokeColor=inherit;fontSize=16;rounded=1;glass=0;fillStyle=solid;strokeWidth=1;verticalAlign=middle;fontFamily=Helvetica;fontColor=default;startSize=26;" vertex="1" parent="YpyxLgt282qVsd08SEJV-28">
          <mxGeometry x="260" width="170" height="30" as="geometry">
            <mxRectangle width="170" height="30" as="alternateBounds" />
          </mxGeometry>
        </mxCell>
        <mxCell id="YpyxLgt282qVsd08SEJV-31" style="shape=tableRow;horizontal=0;startSize=0;swimlaneHead=0;swimlaneBody=0;top=0;left=0;bottom=0;right=0;collapsible=0;dropTarget=0;fillColor=none;points=[[0,0.5],[1,0.5]];portConstraint=eastwest;strokeColor=inherit;fontSize=16;rounded=1;glass=0;fillStyle=solid;strokeWidth=1;align=center;verticalAlign=middle;fontFamily=Helvetica;fontColor=default;html=1;" vertex="1" parent="YpyxLgt282qVsd08SEJV-18">
          <mxGeometry y="120" width="430" height="30" as="geometry" />
        </mxCell>
        <mxCell id="YpyxLgt282qVsd08SEJV-32" value="Note" style="shape=partialRectangle;html=1;whiteSpace=wrap;connectable=0;fillColor=none;top=0;left=0;bottom=0;right=0;overflow=hidden;strokeColor=inherit;fontSize=16;rounded=1;glass=0;fillStyle=solid;strokeWidth=1;align=center;verticalAlign=middle;fontFamily=Helvetica;fontColor=default;startSize=26;" vertex="1" parent="YpyxLgt282qVsd08SEJV-31">
          <mxGeometry width="170" height="30" as="geometry">
            <mxRectangle width="170" height="30" as="alternateBounds" />
          </mxGeometry>
        </mxCell>
        <mxCell id="YpyxLgt282qVsd08SEJV-33" value="$0.50" style="shape=partialRectangle;html=1;whiteSpace=wrap;connectable=0;fillColor=none;top=0;left=0;bottom=0;right=0;align=left;spacingLeft=6;overflow=hidden;strokeColor=inherit;fontSize=16;rounded=1;glass=0;fillStyle=solid;strokeWidth=1;verticalAlign=middle;fontFamily=Helvetica;fontColor=default;startSize=26;" vertex="1" parent="YpyxLgt282qVsd08SEJV-31">
          <mxGeometry x="170" width="90" height="30" as="geometry">
            <mxRectangle width="90" height="30" as="alternateBounds" />
          </mxGeometry>
        </mxCell>
        <mxCell id="YpyxLgt282qVsd08SEJV-38" value="Custom Message" style="shape=partialRectangle;html=1;whiteSpace=wrap;connectable=0;fillColor=none;top=0;left=0;bottom=0;right=0;align=left;spacingLeft=6;overflow=hidden;strokeColor=inherit;fontSize=16;rounded=1;glass=0;fillStyle=solid;strokeWidth=1;verticalAlign=middle;fontFamily=Helvetica;fontColor=default;startSize=26;" vertex="1" parent="YpyxLgt282qVsd08SEJV-31">
          <mxGeometry x="260" width="170" height="30" as="geometry">
            <mxRectangle width="170" height="30" as="alternateBounds" />
          </mxGeometry>
        </mxCell>
        <mxCell id="YpyxLgt282qVsd08SEJV-39" value="&lt;b&gt;option&lt;/b&gt;" style="swimlane;fontStyle=0;childLayout=stackLayout;horizontal=1;startSize=26;fillColor=#e1d5e7;horizontalStack=0;resizeParent=1;resizeParentMax=0;resizeLast=0;collapsible=1;marginBottom=0;whiteSpace=wrap;html=1;strokeColor=#9673a6;rounded=1;glass=0;swimlaneFillColor=none;fillStyle=solid;gradientColor=none;strokeWidth=1;" vertex="1" parent="1">
          <mxGeometry x="830" y="170" width="160" height="104" as="geometry">
            <mxRectangle x="280" y="83" width="80" height="30" as="alternateBounds" />
          </mxGeometry>
        </mxCell>
        <mxCell id="YpyxLgt282qVsd08SEJV-40" value="product_id" style="text;strokeColor=none;fillColor=none;align=left;verticalAlign=top;spacingLeft=4;spacingRight=4;overflow=hidden;rotatable=0;points=[[0,0.5],[1,0.5]];portConstraint=eastwest;whiteSpace=wrap;html=1;" vertex="1" parent="YpyxLgt282qVsd08SEJV-39">
          <mxGeometry y="26" width="160" height="26" as="geometry" />
        </mxCell>
        <mxCell id="YpyxLgt282qVsd08SEJV-41" value="type" style="text;strokeColor=none;fillColor=none;align=left;verticalAlign=top;spacingLeft=4;spacingRight=4;overflow=hidden;rotatable=0;points=[[0,0.5],[1,0.5]];portConstraint=eastwest;whiteSpace=wrap;html=1;" vertex="1" parent="YpyxLgt282qVsd08SEJV-39">
          <mxGeometry y="52" width="160" height="26" as="geometry" />
        </mxCell>
        <mxCell id="YpyxLgt282qVsd08SEJV-42" value="detail" style="text;strokeColor=none;fillColor=none;align=left;verticalAlign=top;spacingLeft=4;spacingRight=4;overflow=hidden;rotatable=0;points=[[0,0.5],[1,0.5]];portConstraint=eastwest;whiteSpace=wrap;html=1;" vertex="1" parent="YpyxLgt282qVsd08SEJV-39">
          <mxGeometry y="78" width="160" height="26" as="geometry" />
        </mxCell>
        <mxCell id="YpyxLgt282qVsd08SEJV-43" style="edgeStyle=orthogonalEdgeStyle;rounded=0;orthogonalLoop=1;jettySize=auto;html=1;fontFamily=Helvetica;fontSize=12;fontColor=default;startSize=26;" edge="1" parent="1" source="YpyxLgt282qVsd08SEJV-40" target="YpyxLgt282qVsd08SEJV-9">
          <mxGeometry relative="1" as="geometry" />
        </mxCell>
        <mxCell id="YpyxLgt282qVsd08SEJV-45" style="edgeStyle=orthogonalEdgeStyle;rounded=0;orthogonalLoop=1;jettySize=auto;html=1;fontFamily=Helvetica;fontSize=12;fontColor=default;startSize=26;" edge="1" parent="1" source="YpyxLgt282qVsd08SEJV-44" target="YpyxLgt282qVsd08SEJV-31">
          <mxGeometry relative="1" as="geometry" />
        </mxCell>
        <mxCell id="YpyxLgt282qVsd08SEJV-44" value="Limit 1 note per recipient in each order. Note cannot be the only item sent to a recipient." style="text;strokeColor=none;fillColor=none;fontSize=12;fontStyle=1;verticalAlign=middle;align=center;fontFamily=Helvetica;fontColor=default;whiteSpace=wrap;html=1;" vertex="1" parent="1">
          <mxGeometry x="580" y="510" width="180" height="60" as="geometry" />
        </mxCell>
      </root>
    </mxGraphModel>
  </diagram>
</mxfile>
